HIERARCHY
ROOT Hips
{
	OFFSET 0.000000 0.000000 0.000000
	CHANNELS 6 Xposition Yposition Zposition Zrotation Xrotation Yrotation
	JOINT RightHip
	{
		OFFSET -0.098679 0.000000 0.000000
		CHANNELS 3 Zrotation Xrotation Yrotation
		JOINT RightKnee
		{
			OFFSET 0.000000 -0.413816 0.000000
			CHANNELS 3 Zrotation Xrotation Yrotation
			JOINT RightAnkle
			{
				OFFSET 0.000000 -0.452914 0.000000
				CHANNELS 3 Zrotation Xrotation Yrotation
				JOINT RightToe
				{
					OFFSET 0.000000 -0.042572 0.122063
					CHANNELS 3 Zrotation Xrotation Yrotation
					JOINT RightToeEnd
					{
						OFFSET 0.000000 0.004481 0.054939
						CHANNELS 3 Zrotation Xrotation Yrotation
						End Site
						{
							OFFSET 0.000000 0.004065 0.049835
						}
					}
				}
			}
		}
	}
	JOINT LeftHip
	{
		OFFSET 0.098679 0.000000 0.000000
		CHANNELS 3 Zrotation Xrotation Yrotation
		JOINT LeftKnee
		{
			OFFSET 0.000000 -0.413816 0.000000
			CHANNELS 3 Zrotation Xrotation Yrotation
			JOINT LeftAnkle
			{
				OFFSET 0.000000 -0.452914 0.000000
				CHANNELS 3 Zrotation Xrotation Yrotation
				JOINT LeftToe
				{
					OFFSET 0.000000 -0.042572 0.122063
					CHANNELS 3 Zrotation Xrotation Yrotation
					JOINT LeftToeEnd
					{
						OFFSET 0.000000 0.004481 0.054939
						CHANNELS 3 Zrotation Xrotation Yrotation
						End Site
						{
							OFFSET 0.000000 0.004065 0.049835
						}
					}
				}
			}
		}
	}
	JOINT Chest
	{
		OFFSET 0.000000 0.180059 0.000000
		CHANNELS 3 Zrotation Xrotation Yrotation
		JOINT Chest2
		{
			OFFSET 0.000000 0.217572 0.000000
			CHANNELS 3 Zrotation Xrotation Yrotation
			JOINT Chest3
			{
				OFFSET 0.000000 0.048096 0.000000
				CHANNELS 3 Zrotation Xrotation Yrotation


				JOINT LeftCollar
				{
					OFFSET 0.020000 0.048096 0.000000
					CHANNELS 3 Zrotation Xrotation Yrotation
					JOINT LeftShoulder
					{
						OFFSET 0.163469 0.000000 0.000000
						CHANNELS 3 Zrotation Xrotation Yrotation
						JOINT LeftElbow
						{
							OFFSET 0.000000 -0.285389 0.000000
							CHANNELS 3 Zrotation Xrotation Yrotation
							JOINT LeftWrist
							{
								OFFSET 0.000000 -0.275440 0.000000
								CHANNELS 3 Zrotation Xrotation Yrotation
								JOINT LeftFinger0
								{
									OFFSET 0.000000 -0.091899 0.000000
									CHANNELS 3 Zrotation Xrotation Yrotation
									End Site
									{
										OFFSET 0.000000 -0.050000 0.000000
									}
								}
							}
						}
					}
				}
				JOINT RightCollar
				{
					OFFSET -0.020000 0.048096 0.000000
					CHANNELS 3 Zrotation Xrotation Yrotation
					JOINT RightShoulder
					{
						OFFSET -0.163469 0.000000 0.000000
						CHANNELS 3 Zrotation Xrotation Yrotation
						JOINT RightElbow
						{
							OFFSET 0.000000 -0.285389 0.000000
							CHANNELS 3 Zrotation Xrotation Yrotation
							JOINT RightWrist
							{
								OFFSET 0.000000 -0.275440 0.000000
								CHANNELS 3 Zrotation Xrotation Yrotation
								JOINT RightFinger0
								{
									OFFSET 0.000000 -0.091899 0.000000
									CHANNELS 3 Zrotation Xrotation Yrotation
									End Site
									{
										OFFSET 0.000000 -0.050000 0.000000
									}
								}
							}
						}
					}
				}
				JOINT Neck
				{
					OFFSET 0.000000 0.048096 0.000000
					CHANNELS 3 Zrotation Xrotation Yrotation
					JOINT Head
					{
						OFFSET 0.000000 0.162951 0.000000
						CHANNELS 3 Zrotation Xrotation Yrotation
						JOINT HeadTip
						{
							OFFSET 0.000000 0.100000 0.000000
							CHANNELS 3 Zrotation Xrotation Yrotation
							End Site
							{
								OFFSET 0.000000 0.050000 0.000000
							}
						}
					}
				}
			}
		}
	}
}


MOTION
Frames: 14
Frame Time: 0.010000
0.324153 0.915743 -0.029482 -8.933132 0.019222 -85.741542 -3.539871 -7.070359 -10.116522 0.000000 35.997017 0.000000 9.340401 -17.801038 -9.050089 0.000000 6.069664 0.000000 0.000000 0.000000 0.000000 12.534510 -6.463680 7.325633 0.000000 31.735666 0.000000 -20.322356 -10.841848 0.266167 0.000000 4.679449 0.000000 0.000000 0.000000 0.000000 2.993652 9.275404 -8.938820 0.000000 24.714780 0.000000 0.000000 0.000000 0.000000 3.918638 -0.140150 -2.045116 22.220883 -12.232607 -30.290805 0.000000 -76.985334 0.000000 -4.418191 4.658941 31.261303 0.000000 0.000000 0.000000 -10.292173 1.035890 -5.685519 -11.784028 23.375018 34.911436 0.000000 -63.394559 0.000000 15.357717 -6.674029 -65.932038 0.000000 0.000000 0.000000 0.000000 0.000000 0.000000 1.438637 1.545572 4.811025 0.000000 0.000000 0.000000 
0.324300 0.916984 -0.030017 -8.755823 0.090770 -85.683545 -3.376712 -6.969035 -10.060865 0.000000 35.436059 0.000000 9.356279 -17.554593 -9.138511 0.000000 6.111893 0.000000 0.000000 0.000000 0.000000 12.560828 -6.391926 7.294444 0.000000 31.204103 0.000000 -20.270749 -10.622780 0.424714 0.000000 4.764062 0.000000 0.000000 0.000000 0.000000 3.007806 8.921656 -8.550540 0.000000 24.762217 0.000000 0.000000 0.000000 0.000000 4.037157 -0.123038 -1.742737 22.119682 -11.411396 -29.641008 0.000000 -76.175028 0.000000 -2.922915 5.606462 31.253668 0.000000 0.000000 0.000000 -10.244886 1.037299 -5.719874 -12.016085 23.514141 35.528460 0.000000 -63.562418 0.000000 14.919651 -6.694240 -66.782182 0.000000 0.000000 0.000000 0.000000 0.000000 0.000000 1.932495 3.272232 3.538486 0.000000 0.000000 0.000000 
0.324162 0.918190 -0.030555 -8.605359 0.145265 -85.668018 -3.242183 -6.831217 -10.008732 0.000000 34.897801 0.000000 9.392333 -17.323318 -9.153941 0.000000 6.175224 0.000000 0.000000 0.000000 0.000000 12.585548 -6.249786 7.330454 0.000000 30.651260 0.000000 -20.224529 -10.406391 0.542725 0.000000 4.859196 0.000000 0.000000 0.000000 0.000000 2.977466 8.538927 -8.120959 0.000000 24.904979 0.000000 0.000000 0.000000 0.000000 4.102379 -0.100309 -1.398290 22.139081 -10.639507 -29.101966 0.000000 -75.426433 0.000000 -1.393258 6.739963 30.973959 0.000000 0.000000 0.000000 -10.139948 1.041384 -5.802539 -12.209306 23.589111 36.052503 0.000000 -63.692283 0.000000 14.589083 -6.838868 -67.508119 0.000000 0.000000 0.000000 0.000000 0.000000 0.000000 2.495213 4.992177 2.286178 0.000000 0.000000 0.000000 
0.324129 0.919326 -0.031024 -8.475593 0.204499 -85.591137 -3.141435 -6.620217 -10.151685 0.000000 34.278684 0.000000 9.350503 -17.111427 -9.066038 0.000000 6.244078 0.000000 0.000000 0.000000 0.000000 12.616214 -6.138357 7.326048 0.000000 30.141750 0.000000 -20.167133 -10.181671 0.635284 0.000000 4.918164 0.000000 0.000000 0.000000 0.000000 2.961694 8.207916 -7.739361 0.000000 25.056724 0.000000 0.000000 0.000000 0.000000 4.135115 -0.077762 -1.075467 22.237226 -9.880382 -28.592402 0.000000 -74.749963 0.000000 -0.095175 7.871980 30.526733 0.000000 0.000000 0.000000 -9.951524 1.050749 -5.966716 -12.482376 23.603241 36.609329 0.000000 -63.875617 0.000000 14.214671 -6.721760 -68.276604 0.000000 0.000000 0.000000 0.000000 0.000000 0.000000 3.190133 6.698389 0.894077 0.000000 0.000000 0.000000 
0.324117 0.920322 -0.031513 -8.347175 0.232224 -85.504502 -2.997588 -6.504042 -10.000370 0.000000 33.815240 0.000000 9.391709 -16.958791 -9.246879 0.000000 6.342209 0.000000 0.000000 0.000000 0.000000 12.626497 -6.054850 7.337756 0.000000 29.691630 0.000000 -20.128405 -9.976672 0.707099 0.000000 5.026298 0.000000 0.000000 0.000000 0.000000 2.828260 7.875494 -7.448338 0.000000 25.184617 0.000000 0.000000 0.000000 0.000000 4.213804 -0.049295 -0.669031 22.354013 -9.009101 -28.132338 0.000000 -74.129809 0.000000 0.936581 8.840789 29.849562 0.000000 0.000000 0.000000 -9.694055 1.026924 -5.989274 -12.739934 23.628073 37.024223 0.000000 -64.033114 0.000000 13.892901 -6.753649 -68.902428 0.000000 0.000000 0.000000 0.000000 0.000000 0.000000 4.034270 8.542275 -0.359744 0.000000 0.000000 0.000000 
0.323997 0.921310 -0.031815 -8.267823 0.282542 -85.403616 -2.900019 -6.264969 -10.076736 0.000000 33.261814 0.000000 9.412824 -16.788180 -9.187670 0.000000 6.404932 0.000000 0.000000 0.000000 0.000000 12.643306 -5.930936 7.294797 0.000000 29.249977 0.000000 -20.072552 -9.785364 0.792569 0.000000 5.105508 0.000000 0.000000 0.000000 0.000000 2.809211 7.620054 -7.116732 0.000000 25.415880 0.000000 0.000000 0.000000 0.000000 4.197629 -0.021288 -0.290047 22.554120 -8.291235 -27.689808 0.000000 -73.514223 0.000000 1.438376 9.612567 29.017298 0.000000 0.000000 0.000000 -9.440243 1.041052 -6.236102 -12.949133 23.524185 37.372417 0.000000 -64.125865 0.000000 13.657870 -6.783466 -69.426963 0.000000 0.000000 0.000000 0.000000 0.000000 0.000000 4.842189 10.026768 -1.756903 0.000000 0.000000 0.000000 
0.323913 0.922257 -0.032045 -8.221182 0.343495 -85.276400 -2.799005 -6.000627 -10.214068 0.000000 32.712671 0.000000 9.380144 -16.584266 -9.150945 0.000000 6.437722 0.000000 0.000000 0.000000 0.000000 12.681041 -5.807693 7.253428 0.000000 28.863204 0.000000 -20.036862 -9.612310 0.829463 0.000000 5.194360 0.000000 0.000000 0.000000 0.000000 2.778223 7.438397 -6.955217 0.000000 25.657416 0.000000 0.000000 0.000000 0.000000 4.090121 0.018586 0.259914 22.810408 -7.571885 -27.323186 0.000000 -72.979722 0.000000 1.861056 10.248588 28.028439 0.000000 0.000000 0.000000 -9.195975 1.028055 -6.324082 -13.144737 23.368543 37.633111 0.000000 -64.202659 0.000000 13.356981 -6.724479 -69.885931 0.000000 0.000000 0.000000 0.000000 0.000000 0.000000 5.624635 11.392935 -3.002213 0.000000 0.000000 0.000000 
0.323761 0.923051 -0.032148 -8.173313 0.409166 -85.200568 -2.718539 -5.780368 -10.338095 0.000000 32.250565 0.000000 9.398563 -16.415891 -9.045958 0.000000 6.453125 0.000000 0.000000 0.000000 0.000000 12.726088 -5.681170 7.283345 0.000000 28.510185 0.000000 -19.979536 -9.476256 0.845310 0.000000 5.249215 0.000000 0.000000 0.000000 0.000000 2.781354 7.254534 -6.712990 0.000000 25.877969 0.000000 0.000000 0.000000 0.000000 3.975130 0.051890 0.746680 23.051626 -6.815148 -27.006925 0.000000 -72.419384 0.000000 1.972569 10.692990 27.237722 0.000000 0.000000 0.000000 -9.016498 1.029285 -6.458716 -13.222098 23.281799 37.769266 0.000000 -64.230968 0.000000 13.131248 -6.719237 -70.275084 0.000000 0.000000 0.000000 0.000000 0.000000 0.000000 6.406714 12.736108 -4.311563 0.000000 0.000000 0.000000 
0.323671 0.923720 -0.032094 -8.144950 0.478092 -85.104115 -2.606831 -5.573449 -10.334354 0.000000 31.833000 0.000000 9.447713 -16.290858 -9.074828 0.000000 6.466741 0.000000 0.000000 0.000000 0.000000 12.760063 -5.587152 7.231653 0.000000 28.233432 0.000000 -19.923513 -9.390568 0.875234 0.000000 5.335295 0.000000 0.000000 0.000000 0.000000 2.808459 7.159300 -6.484709 0.000000 26.052402 0.000000 0.000000 0.000000 0.000000 3.846248 0.084069 1.250264 23.334749 -6.054860 -26.817676 0.000000 -71.914325 0.000000 1.982650 11.252457 26.499424 0.000000 0.000000 0.000000 -8.808839 1.034444 -6.644972 -13.326710 23.190467 37.902469 0.000000 -64.252381 0.000000 12.918745 -6.672774 -70.808256 0.000000 0.000000 0.000000 0.000000 0.000000 0.000000 7.200005 13.950622 -5.664337 0.000000 0.000000 0.000000 
0.323481 0.924323 -0.031972 -8.145211 0.555358 -85.031065 -2.499845 -5.344062 -10.364558 0.000000 31.425640 0.000000 9.421134 -16.144569 -9.090691 0.000000 6.470993 0.000000 0.000000 0.000000 0.000000 12.804457 -5.471228 7.197504 0.000000 27.994011 0.000000 -19.846573 -9.340543 0.912129 0.000000 5.415277 0.000000 0.000000 0.000000 0.000000 2.825182 7.089604 -6.268587 0.000000 26.253421 0.000000 0.000000 0.000000 0.000000 3.759550 0.114090 1.735703 23.525057 -5.232330 -26.653978 0.000000 -71.375879 0.000000 1.938527 11.613140 25.943929 0.000000 0.000000 0.000000 -8.604058 1.027950 -6.761819 -13.405028 23.118829 37.963746 0.000000 -64.273063 0.000000 12.696320 -6.738308 -71.267143 0.000000 0.000000 0.000000 0.000000 0.000000 0.000000 8.124045 15.052690 -7.014236 0.000000 0.000000 0.000000 
0.323288 0.924785 -0.031693 -8.178715 0.639569 -84.962272 -2.406230 -5.116116 -10.419166 0.000000 31.094045 0.000000 9.466439 -16.035135 -9.077637 0.000000 6.515938 0.000000 0.000000 0.000000 0.000000 12.851502 -5.357768 7.143642 0.000000 27.819939 0.000000 -19.789826 -9.321324 0.954722 0.000000 5.436758 0.000000 0.000000 0.000000 0.000000 2.860089 7.088765 -6.088697 0.000000 26.400895 0.000000 0.000000 0.000000 0.000000 3.681228 0.144488 2.244607 23.666176 -4.345594 -26.571734 0.000000 -70.878930 0.000000 1.795800 12.132497 25.814247 0.000000 0.000000 0.000000 -8.465681 1.018882 -6.812893 -13.404568 23.107791 37.944490 0.000000 -64.269033 0.000000 12.516770 -6.772759 -71.680884 0.000000 0.000000 0.000000 0.000000 0.000000 0.000000 8.966765 16.154971 -8.318563 0.000000 0.000000 0.000000 
0.323143 0.925132 -0.031233 -8.210391 0.693543 -84.913010 -2.361293 -4.951802 -10.412615 0.000000 30.871050 0.000000 9.523027 -15.953028 -9.030357 0.000000 6.583086 0.000000 0.000000 0.000000 0.000000 12.850821 -5.274218 7.061134 0.000000 27.714250 0.000000 -19.747159 -9.337945 1.013852 0.000000 5.456463 0.000000 0.000000 0.000000 0.000000 2.855669 7.112347 -5.852826 0.000000 26.568618 0.000000 0.000000 0.000000 0.000000 3.737146 0.179705 2.749108 23.649887 -3.485709 -26.623021 0.000000 -70.327038 0.000000 1.836426 12.747375 26.110918 0.000000 0.000000 0.000000 -8.332579 1.018364 -6.918760 -13.368188 23.069895 37.925640 0.000000 -64.248404 0.000000 12.378957 -6.863584 -72.107517 0.000000 0.000000 0.000000 0.000000 0.000000 0.000000 9.934449 17.105897 -9.598048 0.000000 0.000000 0.000000 
0.323007 0.925375 -0.030804 -8.266565 0.779104 -84.861382 -2.274695 -4.770770 -10.413822 0.000000 30.651225 0.000000 9.556079 -15.882884 -9.041928 0.000000 6.627097 0.000000 0.000000 0.000000 0.000000 12.879613 -5.210651 6.921568 0.000000 27.673015 0.000000 -19.691542 -9.389996 1.108901 0.000000 5.461853 0.000000 0.000000 0.000000 0.000000 2.877976 7.174806 -5.665281 0.000000 26.707865 0.000000 0.000000 0.000000 0.000000 3.824812 0.217485 3.249586 23.617625 -2.539378 -26.807843 0.000000 -69.829736 0.000000 1.792101 13.402280 26.717567 0.000000 0.000000 0.000000 -8.214634 1.004015 -6.920589 -13.296726 23.086517 37.837841 0.000000 -64.254877 0.000000 12.184116 -6.884975 -72.433731 0.000000 0.000000 0.000000 0.000000 0.000000 0.000000 10.855710 18.078506 -10.836685 0.000000 0.000000 0.000000 
0.322818 0.925528 -0.030208 -8.327576 0.855520 -84.814039 -2.190616 -4.630072 -10.301807 0.000000 30.512246 0.000000 9.600101 -15.831968 -9.130511 0.000000 6.651101 0.000000 0.000000 0.000000 0.000000 12.900865 -5.172662 6.811961 0.000000 27.703070 0.000000 -19.636977 -9.445669 1.170538 0.000000 5.394135 0.000000 0.000000 0.000000 0.000000 2.902055 7.246191 -5.463276 0.000000 26.858670 0.000000 0.000000 0.000000 0.000000 3.976233 0.256892 3.690633 23.476653 -1.527945 -27.037659 0.000000 -69.399787 0.000000 1.789469 14.425670 27.688328 0.000000 0.000000 0.000000 -8.086633 0.999517 -6.999351 -13.257740 23.068428 37.839067 0.000000 -64.257875 0.000000 11.981000 -6.929959 -72.828317 0.000000 0.000000 0.000000 0.000000 0.000000 0.000000 11.820689 18.981041 -12.068489 0.000000 0.000000 0.000000 
